<?xml version="1.0" encoding="iso-8859-1"?>
<svg xmlns="http://www.w3.org/2000/svg" xmlns:xlink="http://www.w3.org/1999/xlink" version="1.1" id="Capa_1" x="0px" y="0px" viewBox="0 0 326.912 326.912" style="enable-background:new 0 0 326.912 326.912;" xml:space="preserve" width="512px" height="512px">
	<path d="
		M268.756,137.875
		c-3.051-2.063-3.67-3.499-3.669-3.766
		c0.042-0.243,0.814-1.44,3.809-2.854 
		c33.822-15.947,53.219-35.575,53.219-53.851
		c0-14.783-7.809-22.279-23.209-22.279
		c-4.011,0-8.628,0.467-14.516,1.468 
		c-0.742,0.124-1.498,0.187-2.245,0.187
		c-6.045,0-12.098-4.242-15.063-10.56
		C253.87,18.143,225.298,0,194.291,0 
		c-44.316,0-80.369,36.051-80.369,80.363
		c0,20.645,7.812,40.255,21.99,55.216
		c2.795,2.958,3.166,4.969,2.971,5.618 
		c-0.195,0.648-1.483,1.56-3.922,2.133
		c-11.175,2.622-21.319,4.793-32.294,4.793
		c-5.476,0-10.581-0.548-15.608-1.675 
		c-3.189-0.715-7.409-2.1-12.295-3.704
		c-11.302-3.711-25.367-8.328-38.002-8.328
		c-11.492,0-20.057,3.888-25.457,11.555 
		c-11.208,15.913-7.963,47.944,9.918,97.926
		c21.651,60.516,61.924,83.016,148.594,83.016
		c13.356,0,27.866-0.518,44.358-1.582 
		c29.54-1.905,54.719-11.699,72.814-28.324
		c19.099-17.548,29.193-41.838,29.193-70.245 
		C316.182,191.034,298.448,157.803,268.756,137.875
		z
		
		M203.005,44.133
		c9.213,0,16.682,7.469,16.682,16.682
		s-7.469,16.682-16.682,16.682
		c-9.213,0-16.682-7.469-16.682-16.682
		S193.792,44.133,203.005,44.133
		z 
		
		M132.135,268.491 
		c-40.701-6.55-76.244-46.456-76.244-68.246
		c0-10.663,48.348-10.663,89.573-10.663
		c56.057,0,74.644,17.664,74.644,39.455
		S178.521,275.955,132.135,268.491
		z
	" fill="#FFDA44"/>
</svg>