<?xml version="1.0" encoding="iso-8859-1"?>
<svg xmlns="http://www.w3.org/2000/svg" xmlns:xlink="http://www.w3.org/1999/xlink" version="1.1" id="Layer_1" x="0px" y="0px" viewBox="0 0 511.999 511.999" style="enable-background:new 0 0 511.999 511.999;" xml:space="preserve" width="512px" height="512px">
	<path d="
		M505.73,100.677
		c-6.119-8.801-15.758-14.27-26.447-15.007
		l-55.286-3.804
		c-20.942-39.553-63.508-66.328-110.909-69.042
		c-36.118-2.068-71.688,10.072-97.582,33.314
		c-23.778,21.343-37.735,50.157-39.302,81.133
		c-1.858,36.742,7.678,64.546,29.106,84.632
		c-7.167,3.319-14.562,6.996-22.386,11.129
		c-41.993,22.195-64.137,13.688-112.251-14.375 
		c-21.386-12.48-42.907-8.277-56.164,10.962
		c-15.34,22.266-18.799,64.203-9.026,109.446
		c6.286,29.102,23.491,83.292,68.1,119.25 
		c40.348,32.526,99.166,51.087,161.701,51.087
		c0.804,0,1.611-0.003,2.417-0.01
		c62.795-0.48,120.328-19.347,157.847-51.766 
		c20.814-17.984,36.64-39.232,47.037-63.157
		c9.747-22.424,14.197-46.575,12.87-69.839
		c-2.257-39.582-20.94-74.32-51.328-95.515 
		c8.09-7.964,14.385-17.885,18.183-28.525
		c62.213-4.172,81.988-38.914,88.257-60.149 
		C513.567,120.264,511.806,109.415,505.73,100.677z

		M333.466,123.224
		c-9.166,0-16.597-7.431-16.597-16.597
		s7.431-16.597,16.597-16.597
		c9.166,0,16.597,7.431,16.597,16.597
		S342.632,123.224,333.466,123.224z" fill="#FFDA44"/>
</svg>