<?xml version="1.0" encoding="iso-8859-1"?>
<svg width="200" version="1.1" id="Layer_1" xmlns="http://www.w3.org/2000/svg" xmlns:xlink="http://www.w3.org/1999/xlink" viewBox="0 0 512 512" xml:space="preserve">
	<path style="fill:#F0C419;" d="M122.468,254.481c-17.383-20.238-27.877-46.55-27.877-75.329c0-1.728,0.038-3.456,0.125-5.172 c2.693-61.528,53.438-110.595,115.655-110.595c63.933,0,115.768,51.835,115.768,115.768c0,30.62-11.91,58.447-31.321,79.149	c76.043,7.74,131.472-4.483,167.753-27.514c15.993-10.157,36.907,1.465,36.907,20.413v18.648	c0,98.736-42.467,178.774-141.203,178.774H202.757c-56.644,0-102.505-46.137-102.092-102.868	c0.238-30.908,14.427-58.397,36.481-76.932C131.836,264.487,126.927,259.678,122.468,254.481z"/>
	<path style="fill:#F78A68;" d="M122.468,254.481c-72.411,5.548-109.944-35.179-109.944-35.179	c41.165-4.909,72.374-34.815,82.192-45.323c-0.088,1.716-0.125,3.444-0.125,5.172C94.591,207.931,105.086,234.243,122.468,254.481z"	/>
	<path d="M179.087,182.846c6.916,0,12.524-5.607,12.524-12.524v-31.434c0-6.917-5.608-12.524-12.524-12.524	c-6.915,0-12.524,5.607-12.524,12.524v31.434C166.564,177.239,172.172,182.846,179.087,182.846z"/>
</svg>
